<svg width="372" height="134" viewBox="0 0 372 134" fill="none" xmlns="http://www.w3.org/2000/svg">
<path d="M74.717 107C72.817 107 71.217 106.25 69.917 104.75C68.617 103.25 67.967 101.35 67.967 99.05V28.85C67.967 19.45 70.867 12.65 76.667 8.45C82.467 4.14999 91.817 1.99999 104.717 1.99999H123.467C126.767 1.99999 129.317 2.89999 131.117 4.69999C133.017 6.4 133.967 8.85 133.967 12.05C133.967 15.15 133.017 17.55 131.117 19.25C129.317 20.95 126.767 21.8 123.467 21.8H103.667C98.667 21.8 95.067 22.8 92.867 24.8C90.667 26.8 89.567 30.05 89.567 34.55C89.567 36.15 89.467 38.15 89.267 40.55C89.067 42.85 88.767 45.5 88.367 48.5C90.067 47.1 92.217 46 94.817 45.2C97.417 44.3 99.967 43.85 102.467 43.85H117.317C120.117 43.85 122.267 44.7 123.767 46.4C125.367 48.1 126.167 50.45 126.167 53.45C126.167 56.45 125.367 58.85 123.767 60.65C122.167 62.45 120.017 63.35 117.317 63.35H101.267C96.667 63.35 93.567 64.3 91.967 66.2C90.367 68 89.567 71.7 89.567 77.3V87.2H123.467C127.167 87.2 129.817 88 131.417 89.6C133.117 91.2 133.967 93.8 133.967 97.4C133.967 100.8 133.167 103.25 131.567 104.75C129.967 106.25 127.267 107 123.467 107H74.717ZM146.721 80C143.621 80 140.871 79.4 138.471 78.2C136.171 77 135.021 75.2 135.021 72.8C135.021 71.8 135.221 70.85 135.621 69.95L157.671 8C158.671 5.3 160.171 3.34999 162.171 2.14999C164.271 0.949994 166.421 0.349996 168.621 0.349996C172.121 0.349996 174.771 1.5 176.571 3.8C178.471 6 178.871 8.7 177.771 11.9L160.371 61.1C162.471 59.8 164.621 59.15 166.821 59.15H181.521V47.3C181.521 43.8 182.371 41.25 184.071 39.65C185.771 38.05 188.471 37.25 192.171 37.25C199.471 37.25 203.121 40.6 203.121 47.3V59.15H207.471C211.171 59.15 214.021 60.05 216.021 61.85C218.021 63.65 219.021 66.25 219.021 69.65C219.021 76.55 215.171 80 207.471 80H203.121V98.15C203.121 104.85 199.621 108.2 192.621 108.2C189.221 108.2 186.521 107.4 184.521 105.8C182.521 104.1 181.521 101.55 181.521 98.15V80H146.721ZM265.11 108.2C253.01 108.2 243.76 105.2 237.36 99.2C231.06 93.1 227.91 83.95 227.91 71.75V12.05C227.91 4.25 231.51 0.349996 238.71 0.349996C245.91 0.349996 249.51 4.25 249.51 12.05V71.75C249.51 78.05 250.86 82.65 253.56 85.55C256.36 88.45 260.21 89.9 265.11 89.9C277.11 89.9 283.11 83.85 283.11 71.75V12.05C283.11 4.25 286.71 0.349996 293.91 0.349996C301.11 0.349996 304.71 4.25 304.71 12.05V71.75C304.71 83.85 301.36 92.95 294.66 99.05C287.96 105.15 278.11 108.2 265.11 108.2Z" fill="#4CBFA4"/>
<mask id="mask0_128_179" style="mask-type:alpha" maskUnits="userSpaceOnUse" x="67" y="0" width="238" height="109">
<path d="M74.717 107C72.817 107 71.217 106.25 69.917 104.75C68.617 103.25 67.967 101.35 67.967 99.05V28.85C67.967 19.45 70.867 12.65 76.667 8.45C82.467 4.14999 91.817 1.99999 104.717 1.99999H123.467C126.767 1.99999 129.317 2.89999 131.117 4.69999C133.017 6.4 133.967 8.85 133.967 12.05C133.967 15.15 133.017 17.55 131.117 19.25C129.317 20.95 126.767 21.8 123.467 21.8H103.667C98.667 21.8 95.067 22.8 92.867 24.8C90.667 26.8 89.567 30.05 89.567 34.55C89.567 36.15 89.467 38.15 89.267 40.55C89.067 42.85 88.767 45.5 88.367 48.5C90.067 47.1 92.217 46 94.817 45.2C97.417 44.3 99.967 43.85 102.467 43.85H117.317C120.117 43.85 122.267 44.7 123.767 46.4C125.367 48.1 126.167 50.45 126.167 53.45C126.167 56.45 125.367 58.85 123.767 60.65C122.167 62.45 120.017 63.35 117.317 63.35H101.267C96.667 63.35 93.567 64.3 91.967 66.2C90.367 68 89.567 71.7 89.567 77.3V87.2H123.467C127.167 87.2 129.817 88 131.417 89.6C133.117 91.2 133.967 93.8 133.967 97.4C133.967 100.8 133.167 103.25 131.567 104.75C129.967 106.25 127.267 107 123.467 107H74.717ZM146.721 80C143.621 80 140.871 79.4 138.471 78.2C136.171 77 135.021 75.2 135.021 72.8C135.021 71.8 135.221 70.85 135.621 69.95L157.671 8C158.671 5.3 160.171 3.34999 162.171 2.14999C164.271 0.949994 166.421 0.349996 168.621 0.349996C172.121 0.349996 174.771 1.5 176.571 3.8C178.471 6 178.871 8.7 177.771 11.9L160.371 61.1C162.471 59.8 164.621 59.15 166.821 59.15H181.521V47.3C181.521 43.8 182.371 41.25 184.071 39.65C185.771 38.05 188.471 37.25 192.171 37.25C199.471 37.25 203.121 40.6 203.121 47.3V59.15H207.471C211.171 59.15 214.021 60.05 216.021 61.85C218.021 63.65 219.021 66.25 219.021 69.65C219.021 76.55 215.171 80 207.471 80H203.121V98.15C203.121 104.85 199.621 108.2 192.621 108.2C189.221 108.2 186.521 107.4 184.521 105.8C182.521 104.1 181.521 101.55 181.521 98.15V80H146.721ZM265.11 108.2C253.01 108.2 243.76 105.2 237.36 99.2C231.06 93.1 227.91 83.95 227.91 71.75V12.05C227.91 4.25 231.51 0.349996 238.71 0.349996C245.91 0.349996 249.51 4.25 249.51 12.05V71.75C249.51 78.05 250.86 82.65 253.56 85.55C256.36 88.45 260.21 89.9 265.11 89.9C277.11 89.9 283.11 83.85 283.11 71.75V12.05C283.11 4.25 286.71 0.349996 293.91 0.349996C301.11 0.349996 304.71 4.25 304.71 12.05V71.75C304.71 83.85 301.36 92.95 294.66 99.05C287.96 105.15 278.11 108.2 265.11 108.2Z" fill="#4CBFA4"/>
</mask>
<g mask="url(#mask0_128_179)">
<ellipse cx="186" cy="106.5" rx="171" ry="60.5" fill="#8ACFD8"/>
</g>
</svg>
