<svg width="11" height="20" viewBox="0 0 11 20" fill="none" xmlns="http://www.w3.org/2000/svg">
<path d="M7.87632e-07 9.99558C7.97494e-07 9.76997 0.0351374 9.55998 0.105412 9.36561C0.175687 9.1712 0.296308 8.9864 0.467276 8.81121L8.67778 0.397997C8.93072 0.138787 9.24866 0.00618652 9.63161 0.000196121C10.0146 -0.00582548 10.3384 0.126775 10.603 0.397997C10.8677 0.669189 11 0.997975 11 1.38436C11 1.77074 10.8677 2.09952 10.603 2.37072L3.16186 9.99558L10.603 17.6204C10.856 17.8796 10.9854 18.2054 10.9912 18.5978C10.9971 18.9902 10.8677 19.322 10.603 19.5932C10.3384 19.8644 10.0175 20 9.64037 20C9.2633 20 8.94244 19.8644 8.67778 19.5932L0.467276 11.18C0.296308 11.0048 0.175687 10.82 0.105412 10.6256C0.0351374 10.4312 7.7777e-07 10.2212 7.87632e-07 9.99558Z" fill="#8F95B2"/>
</svg>
