<svg width="39" height="39" viewBox="0 0 39 39" fill="none" xmlns="http://www.w3.org/2000/svg">
<path d="M19.5 21.2125L11.2562 29.4562C11.0312 29.6812 10.7484 29.7963 10.4078 29.8015C10.0672 29.8068 9.77917 29.6916 9.54377 29.4562C9.30833 29.2208 9.19061 28.9354 9.19061 28.6C9.19061 28.2646 9.30833 27.9792 9.54377 27.7438L17.7875 19.5L9.54377 11.2562C9.31876 11.0312 9.20365 10.7484 9.19845 10.4078C9.19323 10.0672 9.30833 9.7792 9.54377 9.54379C9.77917 9.30835 10.0646 9.19064 10.4 9.19064C10.7354 9.19064 11.0208 9.30835 11.2562 9.54379L19.5 17.7875L27.7438 9.54379C27.9687 9.31878 28.2515 9.20368 28.5922 9.19848C28.9328 9.19325 29.2208 9.30835 29.4562 9.54379C29.6916 9.7792 29.8093 10.0646 29.8093 10.4C29.8093 10.7354 29.6916 11.0208 29.4562 11.2562L21.2124 19.5L29.4562 27.7438C29.6812 27.9688 29.7963 28.2516 29.8015 28.5922C29.8067 28.9328 29.6916 29.2208 29.4562 29.4562C29.2208 29.6916 28.9354 29.8094 28.6 29.8094C28.2646 29.8094 27.9792 29.6916 27.7438 29.4562L19.5 21.2125Z" fill="#8F95B2"/>
</svg>
