<svg width="14" height="14" viewBox="0 0 14 14" fill="none" xmlns="http://www.w3.org/2000/svg">
<path fill-rule="evenodd" clip-rule="evenodd" d="M0.5 7C0.5 3.41 3.41 0.5 7 0.5C10.59 0.5 13.5 3.41 13.5 7C13.5 10.59 10.59 13.5 7 13.5C3.41 13.5 0.5 10.59 0.5 7ZM9.40667 5.79067C9.44667 5.73737 9.47561 5.67661 9.49179 5.61197C9.50797 5.54732 9.51107 5.48009 9.5009 5.41424C9.49073 5.34838 9.4675 5.28522 9.43257 5.22847C9.39764 5.17171 9.35172 5.12252 9.2975 5.08377C9.24329 5.04502 9.18188 5.01749 9.11687 5.00282C9.05187 4.98814 8.98459 4.98661 8.91899 4.99831C8.85338 5.01001 8.79078 5.0347 8.73485 5.07094C8.67893 5.10718 8.63081 5.15423 8.59333 5.20933L6.436 8.22933L5.35333 7.14667C5.25855 7.05835 5.13319 7.01026 5.00365 7.01255C4.87412 7.01484 4.75053 7.06731 4.65892 7.15892C4.56731 7.25053 4.51484 7.37412 4.51255 7.50365C4.51026 7.63319 4.55835 7.75855 4.64667 7.85333L6.14667 9.35333C6.19799 9.40462 6.25987 9.44412 6.32799 9.4691C6.39612 9.49407 6.46886 9.50392 6.54118 9.49796C6.61349 9.49199 6.68364 9.47036 6.74675 9.43457C6.80987 9.39877 6.86443 9.34967 6.90667 9.29067L9.40667 5.79067Z" fill="#4CBFA4"/>
</svg>
