<svg width="10" height="10" viewBox="0 0 10 10" fill="none" xmlns="http://www.w3.org/2000/svg">
<path fill-rule="evenodd" clip-rule="evenodd" d="M9.61768 0.698523C9.71421 0.762887 9.78123 0.862959 9.80398 0.976729C9.82673 1.0905 9.80336 1.20865 9.73901 1.30519L4.48901 9.18019C4.45309 9.234 4.40568 9.27917 4.3502 9.31245C4.29471 9.34573 4.23254 9.36629 4.16816 9.37265C4.10377 9.37901 4.03878 9.37101 3.97786 9.34923C3.91693 9.32745 3.8616 9.29243 3.81585 9.24669L0.315846 5.74669C0.238566 5.66375 0.196494 5.55406 0.198493 5.44072C0.200493 5.32738 0.246409 5.21923 0.326566 5.13908C0.406724 5.05892 0.514865 5.013 0.628207 5.011C0.74155 5.009 0.851244 5.05108 0.934179 5.12836L4.05676 8.25094L9.01101 0.819273C9.07547 0.722834 9.17558 0.65594 9.28935 0.633296C9.40311 0.610653 9.52121 0.634115 9.61768 0.698523Z" fill="white"/>
</svg>
