<svg width="11" height="20" viewBox="0 0 11 20" fill="none" xmlns="http://www.w3.org/2000/svg">
<path d="M11 9.99558C11 9.76997 10.9649 9.55998 10.8946 9.36561C10.8243 9.1712 10.7037 8.9864 10.5327 8.81121L2.32222 0.397997C2.06928 0.138787 1.75134 0.00618652 1.36839 0.000196121C0.985446 -0.00582548 0.661641 0.126775 0.396984 0.397997C0.132327 0.669189 4.36229e-08 0.997975 6.05122e-08 1.38436C7.74014e-08 1.77074 0.132327 2.09952 0.396984 2.37072L7.83814 9.99558L0.396984 17.6204C0.14405 17.8796 0.0146444 18.2054 0.00876791 18.5978C0.00292184 18.9902 0.132327 19.322 0.396984 19.5932C0.661642 19.8644 0.982523 20 1.35963 20C1.7367 20 2.05756 19.8644 2.32222 19.5932L10.5327 11.18C10.7037 11.0048 10.8243 10.82 10.8946 10.6256C10.9649 10.4312 11 10.2212 11 9.99558Z" fill="#4CBFA4"/>
</svg>
