<svg width="237" height="108" viewBox="0 0 237 108" fill="none" xmlns="http://www.w3.org/2000/svg">
<path d="M6.75 106.65C4.85 106.65 3.25 105.9 1.95 104.4C0.65 102.9 0 101 0 98.7V28.5C0 19.1 2.9 12.3 8.7 8.1C14.5 3.8 23.85 1.65 36.75 1.65H55.5C58.8 1.65 61.35 2.55 63.15 4.35C65.05 6.05 66 8.5 66 11.7C66 14.8 65.05 17.2 63.15 18.9C61.35 20.6 58.8 21.45 55.5 21.45H35.7C30.7 21.45 27.1 22.45 24.9 24.45C22.7 26.45 21.6 29.7 21.6 34.2C21.6 35.8 21.5 37.8 21.3 40.2C21.1 42.5 20.8 45.15 20.4 48.15C22.1 46.75 24.25 45.65 26.85 44.85C29.45 43.95 32 43.5 34.5 43.5H49.35C52.15 43.5 54.3 44.35 55.8 46.05C57.4 47.75 58.2 50.1 58.2 53.1C58.2 56.1 57.4 58.5 55.8 60.3C54.2 62.1 52.05 63 49.35 63H33.3C28.7 63 25.6 63.95 24 65.85C22.4 67.65 21.6 71.35 21.6 76.95V86.85H55.5C59.2 86.85 61.85 87.65 63.45 89.25C65.15 90.85 66 93.45 66 97.05C66 100.45 65.2 102.9 63.6 104.4C62 105.9 59.3 106.65 55.5 106.65H6.75Z" fill="#4CBFA4"/>
<path d="M78.7535 79.65C75.6535 79.65 72.9035 79.05 70.5035 77.85C68.2035 76.65 67.0535 74.85 67.0535 72.45C67.0535 71.45 67.2535 70.5 67.6535 69.6L89.7035 7.65C90.7035 4.95 92.2035 3 94.2035 1.79999C96.3035 0.599998 98.4535 0 100.654 0C104.154 0 106.804 1.15 108.604 3.45C110.504 5.65 110.904 8.35 109.804 11.55L92.4035 60.75C94.5035 59.45 96.6535 58.8 98.8535 58.8H113.554V46.95C113.554 43.45 114.404 40.9 116.104 39.3C117.804 37.7 120.504 36.9 124.204 36.9C131.504 36.9 135.154 40.25 135.154 46.95V58.8H139.504C143.204 58.8 146.054 59.7 148.054 61.5C150.054 63.3 151.054 65.9 151.054 69.3C151.054 76.2 147.204 79.65 139.504 79.65H135.154V97.8C135.154 104.5 131.654 107.85 124.654 107.85C121.254 107.85 118.554 107.05 116.554 105.45C114.554 103.75 113.554 101.2 113.554 97.8V79.65H78.7535Z" fill="#4CBFA4"/>
<path d="M197.143 107.85C185.043 107.85 175.793 104.85 169.393 98.85C163.093 92.75 159.943 83.6 159.943 71.4V11.7C159.943 3.9 163.543 0 170.743 0C177.943 0 181.543 3.9 181.543 11.7V71.4C181.543 77.7 182.893 82.3 185.593 85.2C188.393 88.1 192.243 89.55 197.143 89.55C209.143 89.55 215.143 83.5 215.143 71.4V11.7C215.143 3.9 218.743 0 225.943 0C233.143 0 236.743 3.9 236.743 11.7V71.4C236.743 83.5 233.393 92.6 226.693 98.7C219.993 104.8 210.143 107.85 197.143 107.85Z" fill="#4CBFA4"/>
<path d="M78.7864 79.65C75.6866 79.65 72.9366 79.05 70.5364 77.85C68.2366 76.65 67.0865 74.85 67.0865 72.4499C67.0865 71.4499 67.2864 70.5 67.6866 69.6L75.2442 48.3668C82.4627 47.573 89.8858 46.9438 97.479 46.4917L92.4366 60.75C94.5364 59.4499 96.6866 58.8 98.8865 58.8H113.586V46.9499C113.586 46.5572 113.597 46.1766 113.618 45.8078C117.729 45.7032 121.88 45.65 126.066 45.65C129.111 45.65 132.138 45.6781 135.144 45.7337C135.172 46.1261 135.187 46.5315 135.187 46.9499V58.8H139.536C143.237 58.8 146.086 59.6999 148.086 61.5C150.086 63.3 151.086 65.9 151.086 69.3C151.086 76.1999 147.237 79.65 139.536 79.65H135.187V97.8C135.187 104.5 131.687 107.85 124.687 107.85C121.286 107.85 118.586 107.05 116.586 105.45C114.586 103.75 113.586 101.2 113.586 97.8V79.65H78.7864Z" fill="#8ACFD8"/>
<path d="M159.976 46.8396V71.4C159.976 83.6 163.126 92.75 169.426 98.85C175.826 104.85 185.076 107.85 197.176 107.85C210.176 107.85 220.026 104.8 226.726 98.6999C233.426 92.6 236.776 83.5 236.776 71.4V60.0398C230.01 58.0041 222.789 56.1516 215.176 54.5039V71.4C215.176 83.5 209.176 89.55 197.176 89.55C192.276 89.55 188.426 88.1 185.626 85.1999C182.926 82.3 181.576 77.6999 181.576 71.4V48.909C174.571 48.0588 167.36 47.3651 159.976 46.8396Z" fill="#8ACFD8"/>
<path d="M0.0330072 65.2602V98.6999C0.0330072 101 0.682909 102.9 1.98296 104.4C3.28301 105.9 4.8831 106.65 6.78301 106.65H55.533C59.3331 106.65 62.033 105.9 63.6331 104.4C65.233 102.9 66.033 100.45 66.033 97.05C66.033 93.4499 65.1829 90.85 63.483 89.25C61.8831 87.65 59.233 86.85 55.533 86.85H21.6331V76.9499C21.6331 71.35 22.4329 67.65 24.033 65.85C25.6331 63.9499 28.733 63 33.3331 63H49.3831C52.0831 63 54.233 62.1 55.8331 60.3C57.4329 58.5 58.233 56.1 58.233 53.1C58.233 52.2203 58.1644 51.3965 58.0267 50.6285C35.8643 54.0328 16.1387 59.0495 0.0330072 65.2602Z" fill="#8ACFD8"/>
</svg>
