<svg width="45" height="45" viewBox="0 0 45 45" fill="none" xmlns="http://www.w3.org/2000/svg">
<path d="M18.8581 35.1562C18.4597 35.1562 18.1257 35.0214 17.8562 34.7518C17.5867 34.4821 17.4519 34.148 17.4519 33.7494C17.4519 33.3508 17.5867 33.0168 17.8562 32.7476C18.1257 32.4784 18.4597 32.3438 18.8581 32.3438H37.0312C37.4296 32.3438 37.7636 32.4786 38.0331 32.7482C38.3026 33.0179 38.4374 33.352 38.4374 33.7506C38.4374 34.1492 38.3026 34.4832 38.0331 34.7524C37.7636 35.0216 37.4296 35.1562 37.0312 35.1562H18.8581ZM18.8581 23.9062C18.4597 23.9062 18.1257 23.7714 17.8562 23.5018C17.5867 23.2321 17.4519 22.898 17.4519 22.4994C17.4519 22.1008 17.5867 21.7668 17.8562 21.4976C18.1257 21.2284 18.4597 21.0938 18.8581 21.0938H37.0312C37.4296 21.0938 37.7636 21.2286 38.0331 21.4982C38.3026 21.7679 38.4374 22.102 38.4374 22.5006C38.4374 22.8992 38.3026 23.2332 38.0331 23.5024C37.7636 23.7716 37.4296 23.9062 37.0312 23.9062H18.8581ZM18.8581 12.6562C18.4597 12.6562 18.1257 12.5214 17.8562 12.2518C17.5867 11.9821 17.4519 11.648 17.4519 11.2494C17.4519 10.8508 17.5867 10.5168 17.8562 10.2476C18.1257 9.9784 18.4597 9.84379 18.8581 9.84379H37.0312C37.4296 9.84379 37.7636 9.97861 38.0331 10.2482C38.3026 10.5179 38.4374 10.852 38.4374 11.2506C38.4374 11.6492 38.3026 11.9831 38.0331 12.2524C37.7636 12.5216 37.4296 12.6562 37.0312 12.6562H18.8581ZM9.68147 36.8689C8.82375 36.8689 8.0895 36.5635 7.47872 35.9527C6.86791 35.342 6.5625 34.6077 6.5625 33.75C6.5625 32.8923 6.86791 32.158 7.47872 31.5472C8.0895 30.9365 8.82375 30.6311 9.68147 30.6311C10.5392 30.6311 11.2734 30.9365 11.8842 31.5472C12.495 32.158 12.8004 32.8923 12.8004 33.75C12.8004 34.6077 12.495 35.342 11.8842 35.9527C11.2734 36.5635 10.5392 36.8689 9.68147 36.8689ZM9.68147 25.6189C8.82375 25.6189 8.0895 25.3135 7.47872 24.7027C6.86791 24.092 6.5625 23.3577 6.5625 22.5C6.5625 21.6423 6.86791 20.908 7.47872 20.2972C8.0895 19.6865 8.82375 19.3811 9.68147 19.3811C10.5392 19.3811 11.2734 19.6865 11.8842 20.2972C12.495 20.908 12.8004 21.6423 12.8004 22.5C12.8004 23.3577 12.495 24.092 11.8842 24.7027C11.2734 25.3135 10.5392 25.6189 9.68147 25.6189ZM9.68147 14.3689C8.82375 14.3689 8.0895 14.0635 7.47872 13.4527C6.86791 12.842 6.5625 12.1077 6.5625 11.25C6.5625 10.3923 6.86791 9.65803 7.47872 9.04724C8.0895 8.43646 8.82375 8.13107 9.68147 8.13107C10.5392 8.13107 11.2734 8.43646 11.8842 9.04724C12.495 9.65803 12.8004 10.3923 12.8004 11.25C12.8004 12.1077 12.495 12.842 11.8842 13.4527C11.2734 14.0635 10.5392 14.3689 9.68147 14.3689Z" fill="#B3B3B3"/>
</svg>
