<svg width="40" height="33" viewBox="0 0 40 33" fill="none" xmlns="http://www.w3.org/2000/svg">
<path d="M37.1282 17L40 19.82L26.6051 33L19.4872 26L22.359 23.18L26.6051 27.34L37.1282 17ZM16.4103 0C18.5864 0 20.6734 0.842854 22.2122 2.34315C23.7509 3.84344 24.6154 5.87827 24.6154 8C24.6154 10.1217 23.7509 12.1566 22.2122 13.6569C20.6734 15.1571 18.5864 16 16.4103 16C14.2341 16 12.1471 15.1571 10.6084 13.6569C9.06959 12.1566 8.20513 10.1217 8.20513 8C8.20513 5.87827 9.06959 3.84344 10.6084 2.34315C12.1471 0.842854 14.2341 0 16.4103 0M16.4103 4C15.3222 4 14.2787 4.42143 13.5093 5.17157C12.7399 5.92172 12.3077 6.93913 12.3077 8C12.3077 9.06087 12.7399 10.0783 13.5093 10.8284C14.2787 11.5786 15.3222 12 16.4103 12C17.4983 12 18.5418 11.5786 19.3112 10.8284C20.0806 10.0783 20.5128 9.06087 20.5128 8C20.5128 6.93913 20.0806 5.92172 19.3112 5.17157C18.5418 4.42143 17.4983 4 16.4103 4M16.4103 18C17.8051 18 19.4872 18.18 21.3538 18.52L17.9282 21.86L16.4103 21.8C10.3179 21.8 3.89744 24.72 3.89744 26V28.2H16.6154L20.5128 32H0V26C0 20.68 10.9333 18 16.4103 18Z" fill="#B3B3B3"/>
</svg>
