<svg width="14" height="14" viewBox="0 0 14 14" fill="none" xmlns="http://www.w3.org/2000/svg">
<path fill-rule="evenodd" clip-rule="evenodd" d="M7 0C3.13385 0 0 3.13385 0 7C0 10.8662 3.13385 14 7 14C10.8662 14 14 10.8662 14 7C14 3.13385 10.8662 0 7 0ZM5.76513 5.0041C5.71583 4.9512 5.65639 4.90877 5.59034 4.87934C5.52428 4.84991 5.45298 4.83408 5.38068 4.83281C5.30838 4.83153 5.23657 4.84483 5.16952 4.87191C5.10247 4.89899 5.04157 4.9393 4.99043 4.99043C4.9393 5.04157 4.89899 5.10247 4.87191 5.16952C4.84483 5.23657 4.83153 5.30838 4.83281 5.38068C4.83408 5.45298 4.84991 5.52428 4.87934 5.59034C4.90877 5.65639 4.9512 5.71583 5.0041 5.76513L6.23897 7L5.0041 8.23487C4.9512 8.28417 4.90877 8.34361 4.87934 8.40967C4.84991 8.47572 4.83408 8.54702 4.83281 8.61932C4.83153 8.69162 4.84483 8.76343 4.87191 8.83048C4.89899 8.89753 4.9393 8.95843 4.99043 9.00957C5.04157 9.0607 5.10247 9.10101 5.16952 9.12809C5.23657 9.15517 5.30838 9.16847 5.38068 9.16719C5.45298 9.16592 5.52428 9.15009 5.59034 9.12066C5.65639 9.09123 5.71583 9.0488 5.76513 8.9959L7 7.76103L8.23487 8.9959C8.28417 9.0488 8.34361 9.09123 8.40967 9.12066C8.47572 9.15009 8.54702 9.16592 8.61932 9.16719C8.69162 9.16847 8.76343 9.15517 8.83048 9.12809C8.89753 9.10101 8.95843 9.0607 9.00957 9.00957C9.0607 8.95843 9.10101 8.89753 9.12809 8.83048C9.15517 8.76343 9.16847 8.69162 9.16719 8.61932C9.16592 8.54702 9.15009 8.47572 9.12066 8.40967C9.09123 8.34361 9.0488 8.28417 8.9959 8.23487L7.76103 7L8.9959 5.76513C9.0488 5.71583 9.09123 5.65639 9.12066 5.59034C9.15009 5.52428 9.16592 5.45298 9.16719 5.38068C9.16847 5.30838 9.15517 5.23657 9.12809 5.16952C9.10101 5.10247 9.0607 5.04157 9.00957 4.99043C8.95843 4.9393 8.89753 4.89899 8.83048 4.87191C8.76343 4.84483 8.69162 4.83153 8.61932 4.83281C8.54702 4.83408 8.47572 4.84991 8.40967 4.87934C8.34361 4.90877 8.28417 4.9512 8.23487 5.0041L7 6.23897L5.76513 5.0041Z" fill="#FF5E5E"/>
</svg>
