<svg width="39" height="39" viewBox="0 0 39 39" fill="none" xmlns="http://www.w3.org/2000/svg">
<path d="M19.5 21.2125L11.2563 29.4562C11.0313 29.6812 10.7485 29.7963 10.4078 29.8015C10.0672 29.8068 9.77923 29.6916 9.54383 29.4562C9.30839 29.2208 9.19067 28.9354 9.19067 28.6C9.19067 28.2646 9.30839 27.9792 9.54383 27.7438L17.7876 19.5L9.54383 11.2562C9.31882 11.0312 9.20371 10.7484 9.19851 10.4078C9.19329 10.0672 9.30839 9.7792 9.54383 9.54379C9.77923 9.30835 10.0646 9.19064 10.4 9.19064C10.7354 9.19064 11.0208 9.30835 11.2563 9.54379L19.5 17.7875L27.7438 9.54379C27.9688 9.31878 28.2516 9.20368 28.5922 9.19848C28.9328 9.19325 29.2208 9.30835 29.4563 9.54379C29.6917 9.7792 29.8094 10.0646 29.8094 10.4C29.8094 10.7354 29.6917 11.0208 29.4563 11.2562L21.2125 19.5L29.4563 27.7438C29.6813 27.9688 29.7964 28.2516 29.8016 28.5922C29.8068 28.9328 29.6917 29.2208 29.4563 29.4562C29.2208 29.6916 28.9354 29.8094 28.6 29.8094C28.2646 29.8094 27.9792 29.6916 27.7438 29.4562L19.5 21.2125Z" fill="#8F95B2"/>
</svg>
